<?xml version="1.0" standalone="no"?>
<!DOCTYPE svg PUBLIC "-//W3C//DTD SVG 1.1//EN" "http://www.w3.org/Graphics/SVG/1.1/DTD/svg11.dtd" >
<svg xmlns="http://www.w3.org/2000/svg">
<metadata></metadata>
<defs>
<font id="CohortBoldBold" horiz-adv-x="1150" >
<font-face units-per-em="2048" ascent="1536" descent="-512" />
<missing-glyph horiz-adv-x="460" />
<glyph unicode="&#xfb01;" horiz-adv-x="1017" d="M10 868v217h92v299q0 46 57 76t139 41.5t187 11.5q101 0 184 -12t138 -39t55 -65v-197h-250v68q0 28 -38 42.5t-89 14.5q-53 0 -86.5 -17t-33.5 -48v-175h499v-839q0 -15 61 -35.5t81 -20.5v-210q-151 2 -277.5 48t-126.5 103v737h-237v-868h-263v868h-92z" />
<glyph unicode="&#xfb02;" horiz-adv-x="1017" d="M10 868v217h92v299q0 46 57 76t139 41.5t187 11.5q158 0 268.5 -30t110.5 -86v-1151q0 -15 61 -35.5t81 -20.5v-210q-151 2 -277.5 48t-126.5 103v1129q0 31 -33.5 48t-83.5 17q-53 0 -86.5 -17t-33.5 -48v-175h112v-217h-112v-868h-263v868h-92z" />
<glyph unicode="&#xfb03;" horiz-adv-x="1558" d="M20 868v217h138v213q0 52 46.5 85t112 45t150.5 12q130 0 192 -35q13 58 107 84.5t229 26.5t226.5 -28.5t91.5 -86.5v-197h-213v68q0 27 -33 42t-72 15q-38 0 -67 -17.5t-29 -47.5v-179h506v-839q0 -15 60 -35.5t81 -20.5v-210q-151 2 -277 48t-126 103v737h-244v-868 h-242v868h-260v-868h-239v868h-138zM397 1085h260v99q0 32 -35 49.5t-81 17.5q-64 0 -104 -17t-40 -48v-101z" />
<glyph unicode="&#xfb04;" horiz-adv-x="1558" d="M37 868v217h137v209q0 38 25 67t69 45t95.5 24t111.5 8q123 0 184 -33q14 56 116 82t245 26q164 0 274.5 -28.5t110.5 -85.5v-1153q0 -15 60 -35.5t81 -20.5v-210q-151 2 -277 48t-126 103v1139q0 27 -37 42t-86 15q-53 0 -87 -17.5t-34 -49.5v-175h164v-217h-164v-868 h-242v868h-243v-868h-240v868h-137zM414 1085h243v103q-4 29 -36 45t-72 16q-60 0 -97.5 -18t-37.5 -49v-97z" />
<glyph horiz-adv-x="0" />
<glyph horiz-adv-x="2048" />
<glyph unicode=" "  horiz-adv-x="460" />
<glyph unicode="&#x09;" horiz-adv-x="460" />
<glyph unicode="&#xa0;" horiz-adv-x="460" />
<glyph unicode="!" horiz-adv-x="413" d="M98 4v293h232v-293h-232zM98 438v1075h232v-1075h-232z" />
<glyph unicode="&#x22;" horiz-adv-x="778" d="M111 1473h229l-31 -547h-168zM438 1473h230l-31 -547h-168z" />
<glyph unicode="#" horiz-adv-x="1435" d="M72 305v217h276l94 266h-202v220h278l113 315h223l-113 -315h183l110 315h226l-113 -315h172v-220h-248l-94 -266h199v-217h-275l-106 -305h-224l107 305h-182l-107 -305h-223l106 305h-200zM571 522h183l92 266h-180z" />
<glyph unicode="$" horiz-adv-x="1185" d="M57 160v307h267v-219q0 -35 80.5 -54.5t189.5 -19.5q107 0 188.5 20.5t81.5 55.5v215q0 47 -22 81.5t-60.5 54t-89 35.5t-108 24t-117.5 20.5t-117.5 25.5t-108 38t-89 58t-60.5 86t-22 122v307q0 76 106 118t275 54v188h276v-186q82 -6 149.5 -18t123 -32.5t87 -52 t31.5 -71.5v-277h-266v172q0 39 -78.5 63.5t-181.5 24.5q-101 0 -179.5 -24.5t-78.5 -63.5v-135q0 -61 44 -98.5t114 -55t154.5 -30t169 -33t154.5 -54t114 -102.5t44 -169v-375q0 -43 -34.5 -76t-96 -53t-134.5 -31.5t-161 -15.5v-187h-276v189q-165 13 -267 55.5 t-102 118.5z" />
<glyph unicode="%" horiz-adv-x="2181" d="M74 758v618q0 36 63 64t149.5 41.5t172.5 13.5q141 0 265 -33t124 -86v-618q0 -52 -121.5 -80.5t-267.5 -28.5q-143 0 -264 28.5t-121 80.5zM324 883q0 -20 40.5 -29.5t94.5 -9.5q55 0 97 9.5t42 29.5v381q0 19 -42.5 29t-96.5 10q-52 0 -93.5 -10t-41.5 -29v-381z M465 -23l954 1471h287l-954 -1471h-287zM1337 88v619q0 36 63 64t150 41t174 13t174 -13t150 -41t63 -64v-619q0 -52 -121 -80t-266 -28t-266 28t-121 80zM1587 213q0 -20 41.5 -29.5t95.5 -9.5q55 0 96.5 9.5t41.5 29.5v381q0 19 -42.5 29t-95.5 10q-52 0 -94.5 -10 t-42.5 -29v-381z" />
<glyph unicode="&#x26;" horiz-adv-x="1839" d="M98 162v461q0 94 189 151q-160 55 -160 135v406q0 47 49 83.5t126 56.5t159 30t162 10q114 0 224.5 -17.5t192.5 -58.5t82 -96v-313h-241v211q0 33 -73.5 54t-162.5 21q-94 0 -168 -22t-74 -55v-273q0 -35 68.5 -57.5t159.5 -22.5h1161v-200h-305v-666h-273v666h-604 q-97 -3 -166 -25.5t-69 -56.5v-324q0 -31 89.5 -51.5t211.5 -20.5q111 0 253 15.5t210 32.5l14 -197q-283 -59 -508 -59q-96 0 -184.5 8.5t-174 27.5t-137 56.5t-51.5 89.5z" />
<glyph unicode="'" horiz-adv-x="440" d="M109 1475h229l-31 -549h-168z" />
<glyph unicode="(" horiz-adv-x="632" d="M49 639q0 285 118.5 517t321.5 394l95 -98q-110 -134 -178 -372.5t-68 -440.5q0 -200 68 -439.5t178 -373.5l-95 -96q-203 158 -321.5 391t-118.5 518z" />
<glyph unicode=")" horiz-adv-x="632" d="M49 -174q110 134 178 373.5t68 439.5q0 202 -68 440.5t-178 372.5l94 98q204 -162 322.5 -394.5t118.5 -516.5q0 -285 -119 -518t-322 -391z" />
<glyph unicode="*" horiz-adv-x="876" d="M33 1153l88 199l246 -123l-43 258h231l-43 -258l246 123l84 -199l-285 -53l199 -189l-178 -127l-140 240l-137 -240l-180 127l196 189z" />
<glyph unicode="+" horiz-adv-x="1073" d="M39 442v209h393v396h217v-396h385v-209h-385v-397h-217v397h-393z" />
<glyph unicode="," horiz-adv-x="448" d="M8 -205l115 473h285l-175 -473h-225z" />
<glyph unicode="-" horiz-adv-x="759" d="M113 487v215h536v-215h-536z" />
<glyph unicode="." horiz-adv-x="462" d="M92 0v297h279v-297h-279z" />
<glyph unicode="/" horiz-adv-x="995" d="M14 -98l676 1628h295l-676 -1628h-295z" />
<glyph unicode="0" horiz-adv-x="1226" d="M94 137v1200q0 43 44.5 74.5t120.5 49t164.5 26t190.5 8.5q101 0 189 -8.5t164.5 -26t121 -49t44.5 -74.5v-1200q0 -43 -44.5 -74.5t-121 -49t-164.5 -25.5t-189 -8q-102 0 -190.5 8t-164.5 25.5t-120.5 49t-44.5 74.5zM362 274q0 -40 73 -64t179 -24t177 24t71 64v926 q0 40 -71 64t-177 24t-179 -24t-73 -64v-926z" />
<glyph unicode="1" horiz-adv-x="563" d="M94 1266v207h373v-1473h-244v1266h-129z" />
<glyph unicode="2" horiz-adv-x="1191" d="M94 0v219q100 0 200.5 33.5t191 100.5t161.5 158.5t112.5 216.5t41.5 265v150q0 59 -63 93t-158 34q-84 0 -153 -25.5t-69 -64.5v-246h-245v385q0 42 41 73.5t111 49t151.5 25.5t175.5 8q95 0 163.5 -6.5t133 -26.5t104 -54t63 -91.5t23.5 -137.5v-155q0 -87 -13.5 -173 t-49.5 -182t-92 -176t-148 -148.5t-209 -105.5h531v-219h-1004z" />
<glyph unicode="3" horiz-adv-x="1206" d="M88 135v334h246v-197q0 -38 77.5 -63t172.5 -25q105 0 177.5 24.5t72.5 63.5v297q0 45 -92 79t-210 34h-30v197h26q109 0 191 31t82 79v191q0 39 -64.5 64.5t-156.5 25.5q-84 0 -153 -25.5t-69 -64.5v-197h-245v336q0 42 41 73.5t111 49t151.5 25.5t175.5 8q67 0 119 -3 t104.5 -11t91 -21t72 -34.5t55 -50.5t33.5 -69t12 -90v-246q0 -51 -57.5 -95.5t-147.5 -74.5q238 -72 238 -188v-334q0 -59 -16.5 -104t-50 -75.5t-76.5 -51t-104.5 -31t-124 -15t-144.5 -4.5q-98 0 -185 8.5t-161.5 26.5t-118 49.5t-43.5 73.5z" />
<glyph unicode="4" horiz-adv-x="1167" d="M74 268v219q44 0 100.5 26t119.5 75.5t123.5 130t109.5 180t78.5 236t29.5 288.5v72h276v-68q0 -366 -150.5 -616.5t-402.5 -323.5h459v240h277v-727h-277v268h-743z" />
<glyph unicode="5" horiz-adv-x="1146" d="M84 0v377h254v-184h156q115 0 197.5 32t82.5 80v301q0 45 -76 75t-180 30h-401l102 764h817v-373h-231v160h-383l-53 -342h149q89 0 158 -4t144 -17t123.5 -35t80 -61.5t31.5 -93.5v-506q0 -59 -49.5 -100.5t-142 -63t-200 -30.5t-247.5 -9h-332z" />
<glyph unicode="6" horiz-adv-x="1226" d="M94 137v608q0 133 55 251.5t164.5 219t288 174t410.5 107.5l51 -188q-219 -40 -370 -112t-235 -166.5t-124 -221.5q209 86 426 86q68 0 131 -8.5t119 -26t89.5 -49.5t33.5 -74v-600q0 -43 -44.5 -74.5t-121 -49t-164.5 -25.5t-189 -8q-102 0 -190.5 8t-164.5 25.5 t-120.5 49t-44.5 74.5zM362 274q0 -40 73 -64t179 -24t177 24t71 64v326q0 39 -71.5 63.5t-176.5 24.5t-178.5 -24.5t-73.5 -63.5v-326z" />
<glyph unicode="7" horiz-adv-x="1189" d="M74 1069v406h1042v-207q-36 0 -81 -23.5t-97 -73t-103 -119t-98 -170.5t-83 -218.5t-57.5 -271t-21.5 -320.5v-72h-276v74q0 423 120.5 712t358.5 482h-450v-199h-254z" />
<glyph unicode="8" horiz-adv-x="1216" d="M94 135v520q0 70 207 109q-207 34 -207 110v465q0 42 44 73.5t119.5 49t163 25.5t187.5 8t187.5 -8t163 -25.5t119.5 -49t44 -73.5v-465q0 -76 -207 -110q207 -39 207 -109v-520q0 -42 -44 -73t-119.5 -48.5t-163 -25.5t-187.5 -8t-187.5 8t-163 25.5t-119.5 48.5t-44 73 zM356 270q0 -39 74 -63.5t178 -24.5q105 0 176.5 24.5t71.5 63.5v299q0 40 -71 64t-177 24q-105 0 -178.5 -24t-73.5 -64v-299zM356 948q0 -39 73.5 -62.5t178.5 -23.5q106 0 177 23.5t71 62.5v256q0 39 -71.5 63.5t-176.5 24.5q-104 0 -178 -24.5t-74 -63.5v-256z" />
<glyph unicode="9" horiz-adv-x="1169" d="M94 735v600q0 43 44.5 74.5t120.5 49t164 26t189 8.5q102 0 190.5 -8.5t165 -26t121 -49t44.5 -74.5v-608q0 -133 -55 -251.5t-164.5 -219t-288 -174t-410.5 -107.5l-51 189q323 58 494.5 181.5t232.5 316.5q-204 -84 -424 -84q-68 0 -131 8.5t-119 26t-89.5 49 t-33.5 73.5zM365 872q0 -39 71 -63.5t176 -24.5t178.5 24.5t73.5 63.5v326q0 40 -73 64t-179 24t-176.5 -24t-70.5 -64v-326z" />
<glyph unicode=":" horiz-adv-x="358" d="M68 0v268h231v-268h-231zM68 834v270h231v-270h-231z" />
<glyph unicode=";" horiz-adv-x="468" d="M18 -205l115 473h285l-174 -473h-226zM135 791v294h232v-294h-232z" />
<glyph unicode="&#x3c;" horiz-adv-x="1179" d="M98 461v170l961 409v-192l-725 -303l725 -301v-193z" />
<glyph unicode="=" horiz-adv-x="1075" d="M41 231v211h979v-211h-979zM43 639v209h977v-209h-977z" />
<glyph unicode="&#x3e;" horiz-adv-x="1021" d="M98 51v193l727 301l-727 303v192l961 -409v-170z" />
<glyph unicode="?" horiz-adv-x="1191" d="M113 934v385q0 42 41 73.5t111 49t151.5 25.5t175.5 8q89 0 171 -8.5t155 -25.5t117 -49t44 -75v-334q0 -44 -20 -89.5t-52.5 -83.5t-71.5 -76t-78 -73t-71.5 -67t-52.5 -65.5t-20 -63.5v-107h-269v107q0 61 26.5 118t65.5 98t85.5 83t85.5 75.5t65.5 74t26.5 79.5v189 q0 40 -68.5 64t-150.5 24q-84 0 -153 -25.5t-69 -64.5v-246h-245zM440 0v297h277v-297h-277z" />
<glyph unicode="@" horiz-adv-x="1669" d="M88 -8v1157q0 55 108.5 101t280 71t359.5 25q187 0 358 -25t279 -71t108 -101v-885q0 -43 -98 -73.5t-221 -30.5q-89 0 -166.5 17.5t-102.5 47.5q-49 -37 -128 -57.5t-156 -20.5q-86 0 -161 30.5t-75 80.5v594q0 48 75 74t163 26q168 0 264 -61v47h217v-578 q0 -12 24.5 -19t43.5 -7q21 0 51 7t30 19v678q0 43 -158.5 72t-346.5 29t-348 -29t-160 -72v-932q0 -42 271 -72t585 -30v-205q-268 0 -520 25t-414 70t-162 98zM690 352q0 -39 135 -39q66 0 108 13t42 34v381q-1 19 -44 30t-106 11q-135 0 -135 -37v-393z" />
<glyph unicode="A" horiz-adv-x="1228" d="M51 0v520q49 215 196.5 532t227.5 423h279q81 -107 228.5 -423.5t195.5 -531.5v-520h-281v350h-565v-350h-281zM346 557h537q-38 166 -128 381.5t-139 282.5q-48 -66 -139 -282.5t-131 -381.5z" />
<glyph unicode="B" horiz-adv-x="1249" d="M94 0v1475h488q104 0 200.5 -12.5t179 -37.5t132 -68.5t49.5 -99.5v-305q0 -94 -148 -166q185 -78 185 -186v-397q0 -51 -53 -91t-140.5 -63.5t-191 -36t-213.5 -12.5h-488zM360 186l222 2q119 0 219 32.5t100 78.5v262q0 49 -99.5 82t-219.5 33h-222v-490zM360 877 l222 2q107 0 194.5 31t87.5 79v172q0 49 -88 81t-194 32h-222v-397z" />
<glyph unicode="C" horiz-adv-x="1329" d="M94 154v1167q0 50 95 91.5t224.5 62t250.5 20.5q130 0 258 -21.5t215.5 -62.5t87.5 -90v-330h-238v215q0 37 -98.5 60.5t-210.5 23.5q-118 0 -212.5 -25.5t-94.5 -66.5v-922q0 -40 107.5 -65t266.5 -25q120 0 267.5 17.5t224.5 38.5l16 -197q-335 -65 -587 -65 q-126 0 -256 21t-223 62.5t-93 90.5z" />
<glyph unicode="D" horiz-adv-x="1372" d="M94 0v1475h576q113 0 218.5 -12.5t196.5 -37.5t146 -69t55 -101v-1052q0 -51 -55 -91.5t-146 -64t-197 -35.5t-218 -12h-576zM371 193l299 2q135 0 236.5 30t101.5 80v850q0 49 -103 81t-235 32h-299v-1075z" />
<glyph unicode="E" horiz-adv-x="1224" d="M98 162v461q0 94 189 151q-160 55 -160 135v406q0 47 49 83.5t126 56.5t159 30t162 10q114 0 224.5 -17.5t192.5 -58.5t82 -96v-313h-241v211q0 33 -73.5 54t-162.5 21q-94 0 -168 -22t-74 -55v-273q0 -35 68.5 -57.5t159.5 -22.5h119v-200h-119q-102 0 -179 -23t-77 -59 v-324q0 -31 89.5 -51.5t211.5 -20.5q111 0 253 15.5t210 32.5l14 -197q-283 -59 -508 -59q-96 0 -184.5 8.5t-174 27.5t-137 56.5t-51.5 89.5z" />
<glyph unicode="F" horiz-adv-x="1126" d="M94 0v1327q0 66 153.5 117t356.5 51q134 0 244 -23t171.5 -61.5t61.5 -83.5v-297h-239v180q0 35 -77.5 57.5t-156.5 22.5q-88 0 -162.5 -24t-74.5 -54v-389h393v-205h-393v-618h-277z" />
<glyph unicode="G" horiz-adv-x="1335" d="M94 154v1167q0 50 94.5 91.5t224.5 62t255 20.5q127 0 254.5 -21.5t215 -62.5t87.5 -90v-330h-238v215q0 37 -98.5 60.5t-210.5 23.5q-118 0 -212.5 -25.5t-94.5 -66.5v-922q0 -40 94 -65t217 -25q141 0 279 35v324h-279v207h541v-674q-100 -40 -247.5 -69t-303.5 -29 q-138 0 -269.5 21.5t-220 62t-88.5 90.5z" />
<glyph unicode="H" horiz-adv-x="1282" d="M94 0v1475h277v-615h540v615h277v-1475h-277v641h-540v-641h-277z" />
<glyph unicode="I" horiz-adv-x="464" d="M94 0v1473h277v-1473h-277z" />
<glyph unicode="J" horiz-adv-x="1173" d="M20 160v325h238v-209q0 -40 91.5 -66t178.5 -26q101 0 188 26t87 64v1201h276v-1311q0 -49 -77 -91.5t-203 -67.5t-267 -25q-140 0 -258.5 25t-186 66t-67.5 89z" />
<glyph unicode="K" horiz-adv-x="1265" d="M94 0v1473h277v-689q160 103 292.5 216t196.5 214v263h287v-287q-88 -145 -324 -350q73 -23 159 -79.5t144 -116t58 -91.5v-553h-277v459q0 20 -51.5 64t-127.5 86.5t-134 54.5q-133 -93 -223 -144v-520h-277z" />
<glyph unicode="L" horiz-adv-x="1089" d="M94 0v1473h277v-1268h649v-205h-926z" />
<glyph unicode="M" horiz-adv-x="1845" d="M61 0v440q30 157 86 339.5t112.5 329t95 237.5t57.5 129h274q38 -83 125 -321t111 -363q25 125 112.5 364t124.5 320h275q19 -38 57 -129.5t95 -237.5t112.5 -328.5t85.5 -339.5v-440h-277v434q-18 123 -72 298t-95.5 283t-51.5 126q-10 -18 -53 -128t-99 -284.5 t-75 -294.5v-434h-277v434q-19 120 -75 294.5t-99 284.5t-53 128q-10 -18 -51.5 -126t-95.5 -283t-72 -298v-434h-277z" />
<glyph unicode="N" horiz-adv-x="1325" d="M94 0v1475h277q56 0 236 -234t347 -528v762h277v-1475h-277v254q-42 107 -161.5 302t-244.5 362t-177 194v-1112h-277z" />
<glyph unicode="O" horiz-adv-x="1417" d="M94 158v1155q0 74 184.5 128t432.5 54q246 0 429 -54t183 -128v-1155q0 -48 -84.5 -89t-225.5 -65t-302 -24q-160 0 -302 24t-228.5 65t-86.5 89zM371 274q0 -39 103 -63.5t237 -24.5t236 24.5t102 63.5v926q0 39 -102 63.5t-236 24.5t-237 -24.5t-103 -63.5v-926z" />
<glyph unicode="P" horiz-adv-x="1206" d="M94 0v1473h430q150 0 291 -25t238.5 -76.5t97.5 -116.5v-536q0 -55 -56 -98.5t-149 -68.5t-200.5 -37.5t-221.5 -12.5h-153v-502h-277zM371 707l153 2q135 2 235.5 32t100.5 78v334q0 49 -102.5 82t-233.5 33h-153v-561z" />
<glyph unicode="Q" horiz-adv-x="1396" d="M82 158v1155q0 74 184 128t432 54q246 0 429.5 -54t183.5 -128v-1155q0 -45 -73 -83.5t-196 -62.5q89 -49 146 -115.5t57 -129.5v-173h-291v152q0 63 -81.5 142t-167.5 92h-7q-160 0 -302 24t-228 65t-86 89zM358 274q0 -39 103 -63.5t237 -24.5t236 24.5t102 63.5v926 q0 39 -102 63.5t-236 24.5t-237 -24.5t-103 -63.5v-926z" />
<glyph unicode="R" horiz-adv-x="1259" d="M94 0v1473h441q151 0 292.5 -25t238.5 -76.5t97 -116.5v-512q0 -114 -231 -174q99 -56 169 -136.5t70 -141.5v-291h-290v270q0 73 -95 158t-204 98h-211v-526h-277zM371 731l164 2q134 2 235.5 32t101.5 79v309q0 49 -102.5 82t-234.5 33h-164v-537z" />
<glyph unicode="S" horiz-adv-x="1185" d="M57 160v307h267v-219q0 -35 80.5 -54.5t189.5 -19.5q107 0 188.5 20.5t81.5 55.5v215q0 47 -22 81.5t-60.5 54t-89 35.5t-108 24t-117.5 20.5t-117.5 25.5t-108 38t-89 58t-60.5 86t-22 122v307q0 48 45 84t122.5 56t166.5 29t190 9t190 -9t166.5 -29t122.5 -56t45 -84 v-277h-266v172q0 39 -78.5 63.5t-181.5 24.5q-101 0 -179.5 -24.5t-78.5 -63.5v-135q0 -61 44 -98.5t114 -55t154.5 -30t169 -33t154.5 -54t114 -102.5t44 -169v-375q0 -49 -46 -85.5t-125 -56.5t-169.5 -29t-193.5 -9q-104 0 -194.5 9t-170 29t-126 56.5t-46.5 85.5z" />
<glyph unicode="T" horiz-adv-x="1103" d="M16 1270v205h1071v-205h-393v-1270h-276v1270h-402z" />
<glyph unicode="U" horiz-adv-x="1265" d="M94 137v1338h275v-1199q0 -39 76.5 -62.5t187.5 -23.5t187.5 23.5t76.5 62.5v1199h274v-1338q0 -43 -46.5 -74.5t-126 -49t-170.5 -25.5t-195 -8q-105 0 -196.5 8t-171 25.5t-125.5 49t-46 74.5z" />
<glyph unicode="V" horiz-adv-x="1236" d="M55 954v521h281v-506q30 -154 131 -398t154 -317q53 72 152 316.5t128 398.5v506h281v-521q-48 -214 -195.5 -530t-228.5 -424h-279q-80 106 -227.5 422.5t-196.5 531.5z" />
<glyph unicode="W" horiz-adv-x="1824" d="M55 846v629h279v-615q31 -162 101.5 -349.5t117.5 -250.5q47 59 117.5 248.5t101.5 351.5v615h281v-615q30 -160 100.5 -350.5t118.5 -249.5q47 63 117.5 250.5t101.5 349.5v615h278v-629q-41 -201 -164.5 -473t-197.5 -373h-264q-45 69 -116 247t-116 363 q-46 -185 -116 -363t-113 -247h-264q-74 99 -198 371.5t-165 474.5z" />
<glyph unicode="X" horiz-adv-x="1224" d="M59 0v328q35 78 128.5 198.5t191.5 225.5q-97 103 -190.5 226.5t-129.5 203.5v293h267v-252q34 -84 125 -195.5t161 -173.5q69 61 160 172.5t127 196.5v252h266v-293q-35 -80 -128.5 -203t-190.5 -229q94 -99 188 -220.5t131 -201.5v-328h-266v287q-36 82 -128 192.5 t-159 167.5q-69 -59 -160.5 -168t-125.5 -192v-287h-267z" />
<glyph unicode="Y" horiz-adv-x="1253" d="M76 1004v471h266v-431q35 -106 127 -241.5t158 -200.5q65 63 156.5 199t127.5 243v431h267v-471q-47 -124 -181.5 -314t-224.5 -278v-412h-295v418q-91 88 -222 274.5t-179 311.5z" />
<glyph unicode="Z" horiz-adv-x="1155" d="M47 0v350q0 75 26.5 139.5t71 112t102 89t121.5 75t128 65.5t121.5 65.5t102 69.5t71 82.5t26.5 100.5v104h-696v217h962v-337q0 -101 -42.5 -184t-110.5 -140t-150 -105t-164 -89t-150 -82t-110.5 -94.5t-42.5 -116.5v-105h797v-217h-1063z" />
<glyph unicode="[" horiz-adv-x="559" d="M111 -248v1723h378v-193h-151v-1337h151v-193h-378z" />
<glyph unicode="\" horiz-adv-x="903" d="M8 1559h230l669 -1588h-231z" />
<glyph unicode="]" horiz-adv-x="518" d="M111 -117h151v1452h-151v197h385v-1845h-385v196z" />
<glyph unicode="^" horiz-adv-x="1081" d="M49 885l502 604l504 -604h-277l-227 301l-227 -301h-275z" />
<glyph unicode="_" horiz-adv-x="1271" d="M113 -47h1048v-213h-1048v213z" />
<glyph unicode="`" horiz-adv-x="571" d="M20 1579h283l258 -373h-221z" />
<glyph unicode="a" horiz-adv-x="1138" d="M88 111v407q0 36 37.5 65t96 46t122.5 26t125 9q172 0 317 -64v256q0 31 -61 49.5t-156 18.5q-93 0 -152 -18t-59 -50v-96h-252v217q0 34 67.5 64.5t175 48.5t220.5 18q117 0 228.5 -18t182.5 -48.5t71 -64.5v-977h-265v53q-168 -73 -317 -73q-65 0 -126 6t-121.5 19.5 t-97 40.5t-36.5 65zM352 227q0 -27 60 -42t157 -15q96 0 156.5 15t60.5 42v201q0 26 -61.5 41.5t-155.5 15.5q-95 0 -156 -15.5t-61 -41.5v-201z" />
<glyph unicode="b" d="M88 0v1526h262v-514q71 44 173 69t200 25q75 0 151.5 -16t132.5 -50t56 -77v-852q0 -33 -32.5 -59t-84.5 -41t-109.5 -23t-113.5 -8q-101 0 -202 22t-171 64v-66h-262zM350 256q0 -33 67 -53.5t169 -20.5q94 0 154.5 15.5t60.5 42.5v606q0 27 -60.5 42t-154.5 15 q-102 0 -169 -20.5t-67 -53.5v-573z" />
<glyph unicode="c" horiz-adv-x="1093" d="M88 111v852q0 46 86 80.5t189.5 48.5t195.5 14q67 0 141 -9t142.5 -25.5t113.5 -45t45 -63.5v-261h-245v132q0 31 -62.5 50t-142.5 19q-86 0 -143.5 -18.5t-57.5 -50.5v-582q0 -70 271 -70q90 0 212.5 16.5t184.5 32.5v-192q-88 -19 -144.5 -30t-143 -20t-171.5 -9 q-109 0 -212 13t-181 44t-78 74z" />
<glyph unicode="d" d="M96 123v852q0 33 32.5 59t84.5 41t109.5 23t113.5 8q100 0 201.5 -22t171.5 -64v506h262v-1526h-262v72q-72 -43 -174 -67.5t-199 -24.5q-75 0 -151.5 16t-132.5 50t-56 77zM358 240q0 -27 60.5 -42.5t154.5 -15.5q102 0 169 20.5t67 53.5v575q-4 32 -71 52t-165 20 q-94 0 -154.5 -15t-60.5 -42v-606z" />
<glyph unicode="e" horiz-adv-x="1134" d="M88 106v873q0 34 43 60t115.5 40t154.5 20.5t174 6.5q90 0 169.5 -6.5t148.5 -20.5t109 -40t40 -60v-465q0 -59 -107.5 -87t-260.5 -28q-176 0 -320 39v-205q0 -31 68 -49t164 -18q100 0 250 12t227 27v-178q-68 -19 -218 -33t-259 -14q-93 0 -177 6.5t-158.5 20.5 t-118.5 39.5t-44 59.5zM354 631q0 -25 67 -41.5t154 -16.5q72 0 144 17t72 41v229q0 27 -70.5 43.5t-145.5 16.5q-87 0 -154 -16.5t-67 -41.5v-231z" />
<glyph unicode="f" horiz-adv-x="811" d="M20 868v217h117v254q0 43 29 74.5t78.5 48.5t106.5 25t122 8q143 0 240.5 -40.5t97.5 -115.5v-157h-213v90q0 14 -32.5 25.5t-67.5 11.5q-37 0 -69 -11t-32 -26v-187h217v-217h-217v-868h-260v868h-117z" />
<glyph unicode="g" horiz-adv-x="1157" d="M94 111v852q0 43 55.5 77t132 50t152.5 16q97 0 199.5 -25t173.5 -69v73h262v-1429q0 -37 -41.5 -63.5t-114.5 -40.5t-155.5 -20.5t-179.5 -6.5q-96 0 -176 6.5t-150 20.5t-110 40.5t-40 63.5v240h263v-109q0 -29 70 -44t143 -15q82 0 155.5 19t73.5 50v269 q-70 -42 -171.5 -64t-201.5 -22q-56 0 -113.5 8t-109.5 23t-84.5 41t-32.5 59zM356 240q0 -27 60.5 -42.5t154.5 -15.5q99 0 165.5 19t70.5 51v577q0 33 -67 53.5t-169 20.5q-94 0 -154.5 -15t-60.5 -42v-606z" />
<glyph unicode="h" d="M88 0v1526h262v-514q71 44 173 69t200 25q75 0 151.5 -16t132.5 -50t56 -77v-963h-262v846q0 27 -60.5 42t-154.5 15q-102 0 -169 -20.5t-67 -53.5v-829h-262z" />
<glyph unicode="i" horiz-adv-x="512" d="M88 1210v283h279v-283h-279zM96 131v954h262v-839q0 -15 61 -35.5t81 -20.5v-210q-151 2 -277.5 48t-126.5 103z" />
<glyph unicode="j" horiz-adv-x="466" d="M-344 -158h238v-65q0 -27 32 -42.5t72 -15.5q39 0 70.5 18t31.5 48v1300h262v-1425q0 -47 -54 -76.5t-131 -40t-179 -10.5q-146 0 -244 28.5t-98 86.5v194zM92 1210v283h279v-283h-279z" />
<glyph unicode="k" horiz-adv-x="1148" d="M88 0v1526h262v-928q117 57 228 140t167 169v174h275v-196q-60 -96 -213 -232q99 -27 176.5 -94t77.5 -121v-438h-262v330q0 47 -64.5 92t-150.5 59q-115 -79 -234 -137v-344h-262z" />
<glyph unicode="l" horiz-adv-x="503" d="M88 131v1395h262v-1282q4 -15 63.5 -34.5t78.5 -19.5v-210q-151 2 -277.5 48t-126.5 103z" />
<glyph unicode="m" horiz-adv-x="1724" d="M88 0v1085h264v-69q66 42 156 66t174 24q92 0 178.5 -26.5t118.5 -71.5q67 46 162 72t184 26q73 0 143 -16t119 -49.5t49 -77.5v-963h-266v846q0 57 -178 57q-84 0 -139 -17.5t-58 -51.5v-834h-266v846q0 27 -50.5 42t-127.5 15q-80 0 -138 -20t-61 -52v-831h-264z" />
<glyph unicode="n" d="M88 0v1085h262v-73q71 44 173 69t200 25q141 0 240.5 -38.5t99.5 -104.5v-963h-262v846q0 27 -60.5 42t-154.5 15q-102 0 -169 -20.5t-67 -53.5v-829h-262z" />
<glyph unicode="o" d="M88 111v852q0 43 80 77t189 50t218 16t218.5 -16t189.5 -50t80 -77v-852q0 -43 -81 -74t-188 -44t-219 -13t-218.5 13t-187.5 44t-81 74zM350 240q0 -27 63.5 -42.5t161.5 -15.5t162 15.5t64 42.5v606q0 27 -63.5 42t-162.5 15t-162 -15t-63 -42v-606z" />
<glyph unicode="p" d="M88 -465v1550h262v-73q71 44 173 69t200 25q75 0 151.5 -16t132.5 -50t56 -77v-852q0 -33 -32.5 -59t-84.5 -41t-109.5 -23t-113.5 -8q-101 0 -202 22t-171 64v-531h-262zM350 256q0 -33 67 -53.5t169 -20.5q94 0 154.5 15.5t60.5 42.5v606q0 27 -60.5 42t-154.5 15 q-99 0 -166 -20t-70 -52v-575z" />
<glyph unicode="q" d="M88 123v852q0 33 32.5 59t84.5 41t109.5 23t113.5 8q100 0 201.5 -22t171.5 -64v65h262v-1550h-262v537q-72 -43 -174 -67.5t-199 -24.5q-75 0 -151.5 16t-132.5 50t-56 77zM350 240q0 -27 60.5 -42.5t154.5 -15.5q99 0 165.5 19t70.5 51v579q-4 32 -71 52t-165 20 q-94 0 -154.5 -15t-60.5 -42v-606z" />
<glyph unicode="r" horiz-adv-x="985" d="M88 0v1085h264v-71q59 44 146.5 68t167.5 24q64 0 125.5 -16t105 -49.5t43.5 -77.5v-256h-266v139q0 27 -41 42t-105 15q-70 0 -121 -18t-55 -47v-838h-264z" />
<glyph unicode="s" horiz-adv-x="1054" d="M74 100v246h250v-121q0 -63 204 -63q88 0 145.5 13.5t57.5 39.5v102q0 18 -6 34t-20 28.5t-28 23t-38 19.5t-42.5 15t-48.5 13t-48.5 11t-51 10.5l-47.5 9.5q-154 30 -235.5 91.5t-81.5 170.5v230q0 61 133.5 97t310.5 36t310 -36t133 -97v-221h-240v116q0 32 -56 49 t-143 17q-81 0 -138.5 -13.5t-57.5 -37.5v-70q0 -23 10.5 -42t32.5 -33t44 -24.5t58 -19.5t61 -14t66.5 -13t61.5 -12q311 -63 311 -264v-291q0 -31 -39.5 -55t-106 -37.5t-144.5 -20.5t-163 -7q-116 0 -215 11.5t-169 39.5t-70 69z" />
<glyph unicode="t" horiz-adv-x="667" d="M14 889v196h125v234h262v-234h242v-196h-242v-643q0 -24 101.5 -52t152.5 -28v-186q-128 1 -245.5 24.5t-194 66t-76.5 93.5v725h-125z" />
<glyph unicode="u" d="M88 123v962h262v-845q0 -27 60.5 -42.5t154.5 -15.5q99 0 165.5 19t70.5 51v833h262v-1085h-262v72q-72 -43 -174 -67.5t-199 -24.5q-75 0 -151.5 16t-132.5 50t-56 77z" />
<glyph unicode="v" horiz-adv-x="1046" d="M41 688v397h268v-380q29 -122 94.5 -260t118.5 -216q54 76 120 215t95 261v380h269v-397q-41 -142 -164 -374.5t-189 -313.5h-262q-65 80 -187 313t-163 375z" />
<glyph unicode="w" horiz-adv-x="1609" d="M49 651v434h270v-417q21 -115 75.5 -243t99.5 -196q44 72 98 199t76 240v417h272v-417q21 -117 75 -245.5t99 -193.5q46 64 100 193t74 246v417h273v-434q-37 -139 -145.5 -356t-168.5 -295h-264q-33 45 -86.5 160.5t-91.5 236.5q-38 -121 -91.5 -236.5t-86.5 -160.5 h-265q-60 77 -168 294.5t-145 356.5z" />
<glyph unicode="x" horiz-adv-x="1054" d="M45 0v254q53 101 272 281q-75 63 -152.5 152.5t-109.5 156.5v241h269v-200q29 -65 92 -138.5t112 -107.5q48 34 111.5 108t93.5 138v200h266v-241q-32 -67 -109.5 -156.5t-152.5 -152.5q221 -182 273 -281v-254h-269v213q-30 55 -97 120t-116 95q-50 -30 -117.5 -94.5 t-97.5 -120.5v-213h-268z" />
<glyph unicode="y" horiz-adv-x="1157" d="M94 123v962h262v-845q0 -27 60.5 -42.5t154.5 -15.5q102 0 169 20.5t67 53.5v829h262v-1429q0 -37 -41.5 -63.5t-114.5 -40.5t-155.5 -20.5t-179.5 -6.5q-96 0 -176 6.5t-150 20.5t-110 40.5t-40 63.5v240h263v-109q0 -29 70 -44t143 -15q82 0 155.5 19t73.5 50v275 q-72 -43 -174 -67.5t-199 -24.5q-76 0 -152.5 16t-132 50t-55.5 77z" />
<glyph unicode="z" horiz-adv-x="1054" d="M68 0v303q0 68 34.5 123t90 91.5t122.5 67t134 55t122.5 49t90 56.5t34.5 70v53h-555v217h822v-286q0 -71 -35 -129.5t-90.5 -97.5t-123 -71.5t-134.5 -58t-122.5 -50t-90.5 -55t-35 -65.5v-53h655v-219h-919z" />
<glyph unicode="{" horiz-adv-x="581" d="M20 516v170h11q159 7 159 246q0 46 -5 123t-5 112q0 191 90 274t295 83v-156q-69 0 -110 -43t-41 -131q0 -38 7 -123t7 -139q0 -93 -30.5 -182.5t-102.5 -149.5q72 -60 102.5 -148.5t30.5 -181.5q0 -52 -7 -137.5t-7 -124.5q0 -88 41 -131t110 -43v-156q-205 0 -295 83 t-90 274q0 37 5 114t5 121q0 246 -170 246z" />
<glyph unicode="|" horiz-adv-x="489" d="M113 -383v1935h278v-1935h-278z" />
<glyph unicode="}" horiz-adv-x="614" d="M20 -166q69 0 110.5 43t41.5 131q0 39 -6 124.5t-6 137.5q0 221 131 330q-131 109 -131 332q0 54 6 139t6 123q0 88 -41.5 131t-110.5 43v156q206 0 296 -84t90 -279q0 -36 -4.5 -111t-4.5 -118q0 -246 168 -246v-170q-168 0 -168 -246q0 -43 4.5 -118t4.5 -111 q0 -195 -89.5 -279t-296.5 -84v156z" />
<glyph unicode="~" horiz-adv-x="1114" d="M76 506q127 215 299 215q50 0 106.5 -24t113.5 -48t107 -24q97 0 181 84l145 -117q-41 -107 -124 -161t-179 -54q-57 0 -115.5 24.5t-109.5 49t-92 24.5q-84 0 -166 -88z" />
<glyph unicode="&#xa1;" horiz-adv-x="417" d="M100 -426v1088h232v-1088h-232zM100 803v293h232v-293h-232z" />
<glyph unicode="&#xa2;" horiz-adv-x="1089" d="M90 119v844q0 37 57.5 66.5t134.5 45t167 23.5v209h217v-207q137 -12 237.5 -47t100.5 -90v-261h-246v132q0 31 -63 50t-142 19q-86 0 -143.5 -18.5t-57.5 -50.5v-582q0 -70 271 -70q90 0 212.5 16.5t184.5 32.5v-192q-186 -44 -354 -55v-220h-217v222q-50 3 -87 6.5 t-92 13t-91 23t-62.5 37t-26.5 53.5z" />
<glyph unicode="&#xa3;" horiz-adv-x="1075" d="M57 0v211q252 111 252 309q0 38 -10 103h-201v198h168q-14 103 -14 187v77q0 91 22.5 161.5t74.5 127.5t145 87t225 30t358 -43l-41 -201q-26 3 -87.5 11.5t-108.5 13t-86 4.5q-53 0 -94 -8t-79.5 -27.5t-59.5 -59t-21 -96.5v-77q0 -95 20 -187h277v-198h-238 q8 -47 8 -113q0 -68 -13.5 -118t-55 -99t-113.5 -82h702v-211h-1030z" />
<glyph unicode="&#xa4;" horiz-adv-x="1163" d="M18 238l123 120v433l-123 122l203 205l96 -94q129 29 258 29q136 0 271 -33l98 98l205 -205l-137 -135v-405l137 -135l-205 -205l-115 114q-110 -22 -254 -22q-127 0 -241 18l-113 -110zM432 377q0 -51 143 -51q146 0 146 51v426q0 25 -42.5 39t-103.5 14q-59 0 -101 -14 t-42 -39v-426z" />
<glyph unicode="&#xa5;" horiz-adv-x="1241" d="M20 1475h271l330 -668l329 668h273l-412 -760h264v-197h-332v-96h332v-199h-332v-223h-245v223h-328v199h328v96h-326v197h258z" />
<glyph unicode="&#xa6;" horiz-adv-x="493" d="M113 -367v816h278v-816h-278zM113 715v801h278v-801h-278z" />
<glyph unicode="&#xa7;" horiz-adv-x="1083" d="M82 1030v230q0 61 133.5 97t310.5 36t310 -36t133 -97v-222h-240v117q0 32 -56 49t-143 17q-81 0 -138.5 -14t-57.5 -38v-69q0 -23 10.5 -42t32.5 -33t44 -24.5t58 -19.5t61 -14t66.5 -13t61.5 -12q311 -63 311 -264v-242q0 -36 -49 -61q65 -62 65 -154v-289 q0 -41 -69.5 -69.5t-168.5 -40.5t-214 -12q-85 0 -163.5 7t-145 21.5t-106.5 38.5t-40 55v246h250v-121q0 -33 57 -49t148 -16q87 0 144.5 14.5t57.5 40.5v100q0 18 -6 34t-20 29t-28 23.5t-38 20t-42 15.5t-48.5 13t-48.5 11t-50.5 10.5l-47.5 9.5q-155 31 -236.5 92.5 t-81.5 169.5v211q0 42 68 74q-84 65 -84 170zM350 643q0 -33 20 -57t69 -41t78 -24.5t99 -20.5q6 -1 9 -2q104 17 104 53v53q0 32 -18.5 56t-55.5 41t-72 27.5t-87 21.5q-63 -5 -104.5 -19.5t-41.5 -34.5v-53z" />
<glyph unicode="&#xa8;" horiz-adv-x="856" d="M115 1208v293h229v-293h-229zM510 1208v293h229v-293h-229z" />
<glyph unicode="&#xa9;" horiz-adv-x="1818" d="M63 727q0 182 64.5 326t179 234.5t267 138t333.5 47.5q182 0 335 -47.5t268 -138t180 -234.5t65 -326t-65 -326t-180 -235t-268 -138.5t-335 -47.5q-181 0 -333.5 47.5t-267 138.5t-179 235t-64.5 326zM240 727q0 -161 48.5 -279.5t138.5 -190t209.5 -106t270.5 -34.5 q152 0 272 34.5t210.5 106t139 190t48.5 279.5t-48.5 279.5t-139 189.5t-210.5 105t-272 34q-151 0 -270.5 -34t-209.5 -105t-138.5 -189.5t-48.5 -279.5zM502 342v739q0 41 75 71t164.5 42t169.5 12q58 0 122.5 -7.5t124.5 -22t99 -39.5t39 -56v-225h-213v115 q0 26 -54.5 42.5t-123.5 16.5q-74 0 -124 -15.5t-50 -43.5v-506q0 -29 60.5 -45.5t173.5 -16.5q79 0 185.5 14.5t160.5 28.5v-165q-229 -54 -400 -54q-94 0 -184 11.5t-157.5 38.5t-67.5 65z" />
<glyph unicode="&#xaa;" horiz-adv-x="827" d="M49 750v303q0 36 49 62t112 37t126 11q127 0 237 -47v182q0 26 -43.5 40t-115.5 14q-69 0 -110.5 -14t-41.5 -40v-67h-201v166q0 38 110.5 68t242.5 30q138 0 251 -30t113 -68v-731h-205v39q-123 -56 -237 -56q-48 0 -94 5t-91.5 15.5t-73.5 31.5t-28 49zM256 842 q0 -20 43.5 -31.5t114.5 -11.5q72 0 115.5 11.5t43.5 31.5v143q-4 18 -48 28.5t-111 10.5q-71 0 -114.5 -11.5t-43.5 -31.5v-139z" />
<glyph unicode="&#xab;" horiz-adv-x="1105" d="M49 563l416 471l156 -133l-283 -338l280 -334l-153 -135zM485 563l416 471l156 -133l-283 -338l281 -334l-154 -135z" />
<glyph unicode="&#xac;" horiz-adv-x="1171" d="M10 629v209h1049v-582h-215v373h-834z" />
<glyph unicode="&#xad;" horiz-adv-x="759" d="M113 487v215h536v-215h-536z" />
<glyph unicode="&#xae;" horiz-adv-x="1818" d="M51 727q0 182 64.5 326t179 234.5t267 138t333.5 47.5q182 0 335 -47.5t268 -138t180 -234.5t65 -326t-65 -326t-180 -235t-268 -138.5t-335 -47.5q-181 0 -333.5 47.5t-267 138.5t-179 235t-64.5 326zM227 727q0 -161 48.5 -279.5t139 -190t210 -106t270.5 -34.5 q152 0 272 34.5t210.5 106t139 190t48.5 279.5t-48.5 279.5t-139 189.5t-210.5 105t-272 34q-151 0 -270.5 -34t-210 -105t-139 -189.5t-48.5 -279.5zM561 270v910h303q105 0 202 -16t163.5 -49t66.5 -77v-317q0 -72 -133 -111q61 -37 100.5 -85t39.5 -91v-164h-226v152 q0 48 -54 97t-124 59h-125v-308h-213zM774 739h90q87 0 148 17t61 45v155q0 28 -61.5 46t-147.5 18h-90v-281z" />
<glyph unicode="&#xaf;" horiz-adv-x="796" d="M113 1210v174h573v-174h-573z" />
<glyph unicode="&#xb0;" horiz-adv-x="606" d="M33 1423q0 96 72.5 162t191.5 66t191.5 -66t72.5 -162q0 -97 -73 -163t-191 -66q-116 0 -190 66t-74 163zM205 1423q0 -35 25.5 -61.5t66.5 -26.5q42 0 68 26t26 62q0 35 -25.5 60.5t-68.5 25.5q-41 0 -66.5 -25.5t-25.5 -60.5z" />
<glyph unicode="&#xb1;" horiz-adv-x="1087" d="M16 -14h1049v-213h-1049v213zM39 592v209h393v395h217v-395h385v-209h-385v-397h-217v397h-393z" />
<glyph unicode="&#xb2;" horiz-adv-x="1032" d="M70 819v223q80 0 160.5 16.5t159.5 55t140 93.5t98.5 139.5t37.5 185.5v78q0 53 -45 80.5t-123 27.5q-69 0 -117.5 -18.5t-48.5 -50.5v-189h-248v336q0 36 35.5 62t98 40t135 20.5t159.5 6.5q75 0 127.5 -4t105.5 -14.5t87.5 -31.5t62.5 -54t40.5 -82t12.5 -115v-78 q0 -35 -6 -73t-21 -87t-45.5 -96t-73 -93t-110 -87t-151.5 -70h422v-221h-893z" />
<glyph unicode="&#xb3;" horiz-adv-x="1042" d="M63 965v221h248v-109q0 -31 55.5 -49t133.5 -18q88 0 139 13.5t51 37.5v166q0 32 -61 48.5t-158 16.5h-27v197h25q85 0 142 19.5t57 52.5v104q0 53 -168 53q-70 0 -119 -18.5t-49 -50.5v-109h-248v223q0 26 8 62q23 53 139.5 76.5t280.5 23.5q90 0 151.5 -5t120 -21 t92 -44t54 -76t20.5 -116v-141q0 -76 -157 -131q180 -66 180 -146v-86q0 -125 -27 -231q-29 -72 -139 -99.5t-293 -27.5q-173 0 -296 24t-146 78q-9 40 -9 62z" />
<glyph unicode="&#xb4;" horiz-adv-x="563" d="M154 1208l252 406h288l-321 -406h-219z" />
<glyph unicode="&#xb6;" horiz-adv-x="1155" d="M35 1081q0 188 127 306t332 118h532v-1728h-227v1528h-125v-1528h-225v887q-188 14 -301 126.5t-113 290.5z" />
<glyph unicode="&#xb7;" horiz-adv-x="950" d="M143 406v294h232v-294h-232z" />
<glyph unicode="&#xb8;" horiz-adv-x="604" d="M35 -418l45 86q46 -24 119 -24q58 0 95.5 22t37.5 72q0 25 -10.5 43.5t-24 28t-39 15.5t-43.5 7.5t-49 3.5l100 189h107l-49 -88q94 -2 172.5 -47.5t78.5 -122.5q0 -59 -26.5 -104t-72.5 -71.5t-101.5 -39.5t-118.5 -13q-131 0 -221 43z" />
<glyph unicode="&#xb9;" horiz-adv-x="503" d="M70 1712v211h364v-1104h-248v893h-116z" />
<glyph unicode="&#xba;" horiz-adv-x="839" d="M49 750v634q0 49 118.5 80t252.5 31q132 0 251.5 -31t119.5 -80v-634q0 -48 -117 -74.5t-254 -26.5q-139 0 -255 26.5t-116 74.5zM260 854q0 -20 43.5 -30.5t116.5 -10.5t117.5 10.5t44.5 30.5v438q0 18 -45 28.5t-117 10.5t-116 -10.5t-44 -28.5v-438z" />
<glyph unicode="&#xbb;" horiz-adv-x="1105" d="M49 901l156 133l416 -471l-416 -469l-154 135l283 334zM485 901l156 133l416 -471l-416 -469l-154 135l283 334z" />
<glyph unicode="&#xbc;" horiz-adv-x="2359" d="M94 1249v211h365v-1104h-248v893h-117zM567 -20l637 1515h250l-639 -1515h-248zM1370 178v221q35 0 88 20.5t118.5 71.5t121 123t93.5 190t38 259v59h278v-57q0 -244 -117.5 -419.5t-342.5 -246.5h338v140h282v-539l-282 -2v180h-615z" />
<glyph unicode="&#xbd;" horiz-adv-x="2420" d="M94 1249v211h365v-1104h-248v893h-117zM571 -20l633 1515h250l-635 -1515h-248zM1434 0v223q80 0 160.5 16.5t159.5 55t140 93.5t98.5 139.5t37.5 185.5v78q0 53 -45 80.5t-123 27.5q-68 0 -117 -19t-49 -51v-188h-248v336q0 36 35.5 62t98 40t135 20.5t159.5 6.5 q75 0 127.5 -4t105.5 -14.5t87.5 -31.5t62.5 -54t40.5 -82t12.5 -115v-78q0 -35 -6 -73t-21 -87t-45.5 -96t-73 -93t-110 -87t-151.5 -70h422v-221h-893z" />
<glyph unicode="&#xbe;" horiz-adv-x="2613" d="M94 502v221h248v-109q0 -31 55 -49t133 -18q88 0 139.5 13.5t51.5 37.5v166q0 32 -61 48.5t-158 16.5h-27v197h25q84 0 141 19.5t57 52.5v104q0 53 -168 53q-70 0 -119 -18.5t-49 -50.5v-109h-247v223q0 26 8 62q23 53 139.5 76.5t280.5 23.5q90 0 151.5 -5t120 -21 t92 -44t54 -76t20.5 -116v-141q0 -75 -158 -131q181 -66 181 -146v-86q0 -125 -27 -231q-29 -72 -139 -99.5t-293 -27.5q-173 0 -296.5 24t-146.5 78q-8 36 -8 62zM913 -20l639 1515h250l-639 -1515h-250zM1538 178v221q35 0 88 20.5t118.5 71.5t121 123t93.5 190t38 259v59 h278v-57q0 -244 -117.5 -419.5t-342.5 -246.5h337v140h283v-539l-283 -2v180h-614z" />
<glyph unicode="&#xbf;" horiz-adv-x="1191" d="M113 102q0 51 27 104t68 95.5t88 87t88 81t68 77t27 74.5v106h269v-106q0 -61 -26.5 -118t-65.5 -98t-85.5 -83.5t-85.5 -76t-65.5 -74t-26.5 -79.5v-188q0 -40 68.5 -64t150.5 -24q84 0 153 25.5t69 64.5v246h245v-385q0 -42 -41 -73.5t-111 -49t-151.5 -25.5t-175.5 -8 q-89 0 -171 8.5t-155 25.5t-117 49t-44 75v333zM475 788v297h277v-297h-277z" />
<glyph unicode="&#xc0;" horiz-adv-x="1228" d="M51 0v520q49 215 196.5 532t227.5 423h279q81 -107 228.5 -423.5t195.5 -531.5v-520h-281v350h-565v-350h-281zM215 1917h283l258 -373h-221zM346 557h537q-38 166 -128 381.5t-139 282.5q-48 -66 -139 -282.5t-131 -381.5z" />
<glyph unicode="&#xc1;" horiz-adv-x="1228" d="M51 0v520q49 215 196.5 532t227.5 423h279q81 -107 228.5 -423.5t195.5 -531.5v-520h-281v350h-565v-350h-281zM346 557h537q-38 166 -128 381.5t-139 282.5q-48 -66 -139 -282.5t-131 -381.5zM502 1546l252 406h288l-321 -406h-219z" />
<glyph unicode="&#xc2;" horiz-adv-x="1228" d="M51 0v520q49 215 196.5 532t227.5 423h279q81 -107 228.5 -423.5t195.5 -531.5v-520h-281v350h-565v-350h-281zM283 1597l333 299l332 -299l-59 -71l-273 139l-274 -139zM346 557h537q-38 166 -128 381.5t-139 282.5q-48 -66 -139 -282.5t-131 -381.5z" />
<glyph unicode="&#xc3;" horiz-adv-x="1228" d="M51 0v520q49 215 196.5 532t227.5 423h279q81 -107 228.5 -423.5t195.5 -531.5v-520h-281v350h-565v-350h-281zM264 1618q29 89 95 147t149 58q39 0 79 -21t75.5 -42t64.5 -21q67 0 111 71l137 -57q-28 -92 -91.5 -155.5t-146.5 -63.5q-47 0 -118 41t-105 41 q-35 0 -60 -16.5t-53 -53.5zM346 557h537q-38 166 -128 381.5t-139 282.5q-48 -66 -139 -282.5t-131 -381.5z" />
<glyph unicode="&#xc4;" horiz-adv-x="1228" d="M51 0v520q49 215 196.5 532t227.5 423h279q81 -107 228.5 -423.5t195.5 -531.5v-520h-281v350h-565v-350h-281zM303 1546v293h229v-293h-229zM346 557h537q-38 166 -128 381.5t-139 282.5q-48 -66 -139 -282.5t-131 -381.5zM698 1546v293h230v-293h-230z" />
<glyph unicode="&#xc5;" horiz-adv-x="1228" d="M51 0v520q49 215 196.5 532t227.5 423h279q81 -107 228.5 -423.5t195.5 -531.5v-520h-281v350h-565v-350h-281zM346 557h537q-38 166 -128 381.5t-139 282.5q-48 -66 -139 -282.5t-131 -381.5zM350 1761q0 96 72.5 162t191.5 66t192 -66t73 -162q0 -97 -73.5 -163 t-191.5 -66q-116 0 -190 66t-74 163zM522 1761q0 -35 25.5 -61.5t66.5 -26.5q42 0 68.5 26.5t26.5 61.5t-26 60.5t-69 25.5q-41 0 -66.5 -25.5t-25.5 -60.5z" />
<glyph unicode="&#xc6;" horiz-adv-x="2027" d="M51 0v520q51 220 195.5 532t228.5 423h279q64 -84 172 -301v149q0 45 49.5 80t128 54t162 28.5t164.5 9.5q82 0 167 -9.5t159.5 -27.5t121.5 -48.5t47 -66.5v-333h-242v207q0 35 -72.5 57t-158.5 22q-99 0 -172.5 -22.5t-73.5 -59.5v-268q0 -35 68.5 -57.5t159.5 -22.5 h118v-200h-118q-102 0 -179 -23t-77 -59v-326q0 -31 92.5 -51.5t218.5 -20.5q106 0 245 15.5t208 31.5l14 -196q-288 -60 -506 -60q-103 0 -193.5 8.5t-175 28.5t-134.5 58t-50 90v188h-565v-350h-281zM342 557h543q-38 159 -129.5 378t-139.5 286q-48 -66 -141 -285 t-133 -379z" />
<glyph unicode="&#xc7;" horiz-adv-x="1349" d="M98 154v1167q0 50 95 91.5t224.5 62t250.5 20.5q130 0 258 -21.5t215.5 -62.5t87.5 -90v-330h-238v215q0 37 -98.5 60.5t-210.5 23.5q-118 0 -212.5 -25.5t-94.5 -66.5v-922q0 -40 108 -65t267 -25q120 0 267 17.5t224 38.5l16 -197q-296 -60 -536 -65l-31 -56 q94 -2 173 -47.5t79 -122.5t-47 -130t-116.5 -75t-155.5 -22q-132 0 -222 43l45 86q48 -25 119 -25q58 0 95.5 22.5t37.5 72.5q0 25 -10.5 43.5t-24 28t-39 15.5t-43.5 7.5t-49 3.5l82 158q-122 4 -238 25.5t-197 60.5t-81 86z" />
<glyph unicode="&#xc8;" horiz-adv-x="1224" d="M98 162v461q0 94 189 151q-160 55 -160 135v406q0 47 49 83.5t126 56.5t159 30t162 10q114 0 224.5 -17.5t192.5 -58.5t82 -96v-313h-241v211q0 33 -73.5 54t-162.5 21q-94 0 -168 -22t-74 -55v-273q0 -35 68.5 -57.5t159.5 -22.5h119v-200h-119q-102 0 -179 -23t-77 -59 v-324q0 -31 89.5 -51.5t211.5 -20.5q111 0 253 15.5t210 32.5l14 -197q-283 -59 -508 -59q-96 0 -184.5 8.5t-174 27.5t-137 56.5t-51.5 89.5zM225 1917h283l258 -373h-221z" />
<glyph unicode="&#xc9;" horiz-adv-x="1224" d="M98 162v461q0 94 189 151q-160 55 -160 135v406q0 47 49 83.5t126 56.5t159 30t162 10q114 0 224.5 -17.5t192.5 -58.5t82 -96v-313h-241v211q0 33 -73.5 54t-162.5 21q-94 0 -168 -22t-74 -55v-273q0 -35 68.5 -57.5t159.5 -22.5h119v-200h-119q-102 0 -179 -23t-77 -59 v-324q0 -31 89.5 -51.5t211.5 -20.5q111 0 253 15.5t210 32.5l14 -197q-283 -59 -508 -59q-96 0 -184.5 8.5t-174 27.5t-137 56.5t-51.5 89.5zM512 1546l252 406h289l-322 -406h-219z" />
<glyph unicode="&#xca;" horiz-adv-x="1224" d="M98 162v461q0 94 189 151q-160 55 -160 135v406q0 47 49 83.5t126 56.5t159 30t162 10q114 0 224.5 -17.5t192.5 -58.5t82 -96v-313h-241v211q0 33 -73.5 54t-162.5 21q-94 0 -168 -22t-74 -55v-273q0 -35 68.5 -57.5t159.5 -22.5h119v-200h-119q-102 0 -179 -23t-77 -59 v-324q0 -31 89.5 -51.5t211.5 -20.5q111 0 253 15.5t210 32.5l14 -197q-283 -59 -508 -59q-96 0 -184.5 8.5t-174 27.5t-137 56.5t-51.5 89.5zM293 1597l334 299l331 -299l-59 -71l-272 139l-275 -139z" />
<glyph unicode="&#xcb;" horiz-adv-x="1224" d="M98 162v461q0 94 189 151q-160 55 -160 135v406q0 47 49 83.5t126 56.5t159 30t162 10q114 0 224.5 -17.5t192.5 -58.5t82 -96v-313h-241v211q0 33 -73.5 54t-162.5 21q-94 0 -168 -22t-74 -55v-273q0 -35 68.5 -57.5t159.5 -22.5h119v-200h-119q-102 0 -179 -23t-77 -59 v-324q0 -31 89.5 -51.5t211.5 -20.5q111 0 253 15.5t210 32.5l14 -197q-283 -59 -508 -59q-96 0 -184.5 8.5t-174 27.5t-137 56.5t-51.5 89.5zM313 1546v293h230v-293h-230zM709 1546v293h229v-293h-229z" />
<glyph unicode="&#xcc;" horiz-adv-x="477" d="M-160 1917h283l258 -373h-221zM106 0v1473h277v-1473h-277z" />
<glyph unicode="&#xcd;" horiz-adv-x="477" d="M106 0v1473h277v-1473h-277zM129 1546l252 406h289l-322 -406h-219z" />
<glyph unicode="&#xce;" horiz-adv-x="477" d="M-90 1597l334 299l331 -299l-59 -71l-272 139l-275 -139zM106 0v1473h277v-1473h-277z" />
<glyph unicode="&#xcf;" horiz-adv-x="477" d="M-72 1546v293h230v-293h-230zM106 0v1473h277v-1473h-277zM324 1546v293h229v-293h-229z" />
<glyph unicode="&#xd0;" horiz-adv-x="1419" d="M6 643v215h135v617h576q113 0 218.5 -12.5t196.5 -37.5t146 -69t55 -101v-1052q0 -51 -55 -91.5t-146 -64t-197 -35.5t-218 -12h-576v643h-135zM418 193h299q132 0 235 32t103 80v850q0 49 -103 81t-235 32h-299v-410h149v-215h-149v-450z" />
<glyph unicode="&#xd1;" horiz-adv-x="1325" d="M94 0v1475h277q56 0 236 -234t347 -528v762h277v-1475h-277v254q-42 107 -161.5 302t-244.5 362t-177 194v-1112h-277zM315 1618q29 89 95 147t149 58q39 0 79 -21t75.5 -42t64.5 -21q67 0 111 71l137 -57q-28 -92 -91.5 -155.5t-146.5 -63.5q-47 0 -118 41t-105 41 q-35 0 -59.5 -16.5t-52.5 -53.5z" />
<glyph unicode="&#xd2;" horiz-adv-x="1417" d="M94 158v1155q0 74 184.5 128t432.5 54q246 0 429 -54t183 -128v-1155q0 -48 -84.5 -89t-225.5 -65t-302 -24q-160 0 -302 24t-228.5 65t-86.5 89zM309 1917h283l258 -373h-221zM371 274q0 -39 103 -63.5t237 -24.5t236 24.5t102 63.5v926q0 39 -102 63.5t-236 24.5 t-237 -24.5t-103 -63.5v-926z" />
<glyph unicode="&#xd3;" horiz-adv-x="1417" d="M94 158v1155q0 74 184.5 128t432.5 54q246 0 429 -54t183 -128v-1155q0 -48 -84.5 -89t-225.5 -65t-302 -24q-160 0 -302 24t-228.5 65t-86.5 89zM371 274q0 -39 103 -63.5t237 -24.5t236 24.5t102 63.5v926q0 39 -102 63.5t-236 24.5t-237 -24.5t-103 -63.5v-926z M596 1546l252 406h289l-322 -406h-219z" />
<glyph unicode="&#xd4;" horiz-adv-x="1417" d="M94 158v1155q0 74 184.5 128t432.5 54q246 0 429 -54t183 -128v-1155q0 -48 -84.5 -89t-225.5 -65t-302 -24q-160 0 -302 24t-228.5 65t-86.5 89zM371 274q0 -39 103 -63.5t237 -24.5t236 24.5t102 63.5v926q0 39 -102 63.5t-236 24.5t-237 -24.5t-103 -63.5v-926z M377 1597l334 299l331 -299l-59 -71l-272 139l-275 -139z" />
<glyph unicode="&#xd5;" horiz-adv-x="1417" d="M94 158v1155q0 74 184.5 128t432.5 54q246 0 429 -54t183 -128v-1155q0 -48 -84.5 -89t-225.5 -65t-302 -24q-160 0 -302 24t-228.5 65t-86.5 89zM358 1618q29 89 95 147t149 58q39 0 79 -21t75.5 -42t64.5 -21q67 0 111 71l137 -57q-28 -92 -91.5 -155.5t-146.5 -63.5 q-47 0 -118 41t-105 41q-35 0 -59.5 -16.5t-52.5 -53.5zM371 274q0 -39 103 -63.5t237 -24.5t236 24.5t102 63.5v926q0 39 -102 63.5t-236 24.5t-237 -24.5t-103 -63.5v-926z" />
<glyph unicode="&#xd6;" horiz-adv-x="1417" d="M94 158v1155q0 74 184.5 128t432.5 54q246 0 429 -54t183 -128v-1155q0 -48 -84.5 -89t-225.5 -65t-302 -24q-160 0 -302 24t-228.5 65t-86.5 89zM371 274q0 -39 103 -63.5t237 -24.5t236 24.5t102 63.5v926q0 39 -102 63.5t-236 24.5t-237 -24.5t-103 -63.5v-926z M395 1546v293h230v-293h-230zM791 1546v293h229v-293h-229z" />
<glyph unicode="&#xd7;" horiz-adv-x="1210" d="M82 197l371 346l-367 352l145 139l373 -352l375 350l147 -137l-370 -350l370 -350l-153 -136l-369 349l-373 -351z" />
<glyph unicode="&#xd8;" horiz-adv-x="1417" d="M94 158v1155q0 74 184.5 128t432.5 54q105 0 231 -14l29 67h162l-41 -94q107 -27 169 -64t62 -77v-1155q0 -48 -84.5 -89t-225.5 -65t-302 -24q-102 0 -228 14l-28 -74h-158l41 96q-112 25 -178 62.5t-66 79.5zM371 274q0 -28 53 -49l436 1055q-63 8 -149 8 q-134 0 -237 -24.5t-103 -63.5v-926zM567 195q68 -9 144 -9q134 0 236 24.5t102 63.5v926q0 24 -43 43z" />
<glyph unicode="&#xd9;" horiz-adv-x="1265" d="M94 137v1338h275v-1199q0 -39 76.5 -62.5t187.5 -23.5t187.5 23.5t76.5 62.5v1199h274v-1338q0 -43 -46.5 -74.5t-126 -49t-170.5 -25.5t-195 -8q-105 0 -196.5 8t-171 25.5t-125.5 49t-46 74.5zM233 1917h283l258 -373h-221z" />
<glyph unicode="&#xda;" horiz-adv-x="1265" d="M94 137v1338h275v-1199q0 -39 76.5 -62.5t187.5 -23.5t187.5 23.5t76.5 62.5v1199h274v-1338q0 -43 -46.5 -74.5t-126 -49t-170.5 -25.5t-195 -8q-105 0 -196.5 8t-171 25.5t-125.5 49t-46 74.5zM520 1546l252 406h289l-322 -406h-219z" />
<glyph unicode="&#xdb;" horiz-adv-x="1265" d="M94 137v1338h275v-1199q0 -39 76.5 -62.5t187.5 -23.5t187.5 23.5t76.5 62.5v1199h274v-1338q0 -43 -46.5 -74.5t-126 -49t-170.5 -25.5t-195 -8q-105 0 -196.5 8t-171 25.5t-125.5 49t-46 74.5zM301 1597l334 299l332 -299l-60 -71l-272 139l-275 -139z" />
<glyph unicode="&#xdc;" horiz-adv-x="1265" d="M94 137v1338h275v-1199q0 -39 76.5 -62.5t187.5 -23.5t187.5 23.5t76.5 62.5v1199h274v-1338q0 -43 -46.5 -74.5t-126 -49t-170.5 -25.5t-195 -8q-105 0 -196.5 8t-171 25.5t-125.5 49t-46 74.5zM319 1546v293h230v-293h-230zM715 1546v293h229v-293h-229z" />
<glyph unicode="&#xdd;" horiz-adv-x="1253" d="M76 1004v471h266v-431q35 -106 127 -241.5t158 -200.5q65 63 156.5 199t127.5 243v431h267v-471q-47 -124 -181.5 -314t-224.5 -278v-412h-295v418q-91 88 -222 274.5t-179 311.5zM512 1546l252 406h289l-322 -406h-219z" />
<glyph unicode="&#xde;" horiz-adv-x="1239" d="M113 0v1473h276v-218h152q111 0 221 -15t201 -42t147.5 -69t56.5 -91v-536q0 -55 -56 -98.5t-148.5 -68.5t-200 -37.5t-221.5 -12.5h-152v-285h-276zM389 489l152 3q135 2 235.5 32t100.5 78v334q0 49 -102.5 82t-233.5 33h-152v-562z" />
<glyph unicode="&#xdf;" horiz-adv-x="1499" d="M137 0v1372q0 66 176.5 97.5t427.5 31.5q209 0 358.5 -30.5t149.5 -86.5v-256q0 -206 -309 -206q-61 0 -110.5 -14.5t-49.5 -37.5v-57q0 -42 35.5 -71t92.5 -44.5t125.5 -29t137.5 -32t126 -46t92.5 -78t35.5 -121.5v-291q0 -41 -69.5 -69t-168.5 -39.5t-216 -11.5 q-85 0 -163 7t-144.5 20.5t-106 37.5t-39.5 55v246h250v-121q0 -63 205 -63q88 0 144.5 13.5t56.5 39.5v102q0 23 -10.5 42.5t-31 33.5t-43.5 24.5t-56.5 20t-61 15.5t-65 14t-60.5 14q-76 18 -129 38.5t-98.5 50.5t-68 73t-22.5 100v218q0 61 123 97t285 36q40 0 58 8 t18 33v120q0 29 -80.5 43.5t-190.5 14.5q-163 0 -253.5 -17t-90.5 -49v-1247h-260z" />
<glyph unicode="&#xe0;" horiz-adv-x="1175" d="M88 111v407q0 36 37.5 65t96 46t122.5 26t125 9q172 0 317 -64v256q0 31 -61 49.5t-156 18.5q-93 0 -152 -18t-59 -50v-96h-252v217q0 34 67.5 64.5t175 48.5t220.5 18q117 0 228.5 -18t182.5 -48.5t71 -64.5v-977h-265v53q-168 -73 -317 -73q-65 0 -126 6t-121.5 19.5 t-97 40.5t-36.5 65zM186 1581h283l258 -373h-221zM352 227q0 -27 60 -42t157 -15q93 0 153.5 14t63.5 39v207q-3 26 -64 40.5t-153 14.5q-95 0 -156 -15.5t-61 -41.5v-201z" />
<glyph unicode="&#xe1;" horiz-adv-x="1175" d="M88 111v407q0 36 37.5 65t96 46t122.5 26t125 9q172 0 317 -64v256q0 31 -61 49.5t-156 18.5q-93 0 -152 -18t-59 -50v-96h-252v217q0 34 67.5 64.5t175 48.5t220.5 18q117 0 228.5 -18t182.5 -48.5t71 -64.5v-977h-265v53q-168 -73 -317 -73q-65 0 -126 6t-121.5 19.5 t-97 40.5t-36.5 65zM352 227q0 -27 60 -42t157 -15q96 0 156.5 15t60.5 42v203q-3 26 -64 40.5t-153 14.5q-95 0 -156 -15.5t-61 -41.5v-201zM473 1210l252 406h289l-322 -406h-219z" />
<glyph unicode="&#xe2;" horiz-adv-x="1175" d="M88 111v407q0 36 37.5 65t96 46t122.5 26t125 9q172 0 317 -64v256q0 31 -61 49.5t-156 18.5q-93 0 -152 -18t-59 -50v-96h-252v217q0 34 67.5 64.5t175 48.5t220.5 18q117 0 228.5 -18t182.5 -48.5t71 -64.5v-977h-265v53q-168 -73 -317 -73q-65 0 -126 6t-121.5 19.5 t-97 40.5t-36.5 65zM254 1262l334 299l332 -299l-60 -72l-272 139l-275 -139zM352 227q0 -27 60 -42t157 -15q96 0 156.5 15t60.5 42v201q0 26 -61.5 41.5t-155.5 15.5q-95 0 -156 -15.5t-61 -41.5v-201z" />
<glyph unicode="&#xe3;" horiz-adv-x="1175" d="M88 111v407q0 36 37.5 65t96 46t122.5 26t125 9q172 0 317 -64v256q0 31 -61 49.5t-156 18.5q-93 0 -152 -18t-59 -50v-96h-252v217q0 34 67.5 64.5t175 48.5t220.5 18q117 0 228.5 -18t182.5 -48.5t71 -64.5v-977h-265v53q-168 -73 -317 -73q-65 0 -126 6t-121.5 19.5 t-97 40.5t-36.5 65zM236 1280q29 89 94.5 147t148.5 58q39 0 79 -21t75.5 -42t64.5 -21q66 0 111 72l137 -58q-29 -92 -91.5 -155.5t-145.5 -63.5q-47 0 -118.5 41t-105.5 41q-35 0 -59.5 -16.5t-52.5 -53.5zM352 227q0 -27 60 -42t157 -15q93 0 153.5 14t63.5 39v207 q-3 26 -64 40.5t-153 14.5q-95 0 -156 -15.5t-61 -41.5v-201z" />
<glyph unicode="&#xe4;" horiz-adv-x="1175" d="M88 111v407q0 36 37.5 65t96 46t122.5 26t125 9q172 0 317 -64v256q0 31 -61 49.5t-156 18.5q-93 0 -152 -18t-59 -50v-96h-252v217q0 34 67.5 64.5t175 48.5t220.5 18q117 0 228.5 -18t182.5 -48.5t71 -64.5v-977h-265v53q-168 -73 -317 -73q-65 0 -126 6t-121.5 19.5 t-97 40.5t-36.5 65zM274 1210v293h230v-293h-230zM352 227q0 -27 60 -42t157 -15q96 0 156.5 15t60.5 42v203q-3 26 -64 40.5t-153 14.5q-95 0 -156 -15.5t-61 -41.5v-201zM670 1210v293h229v-293h-229z" />
<glyph unicode="&#xe5;" horiz-adv-x="1175" d="M88 111v407q0 36 37.5 65t96 46t122.5 26t125 9q172 0 317 -64v256q0 31 -61 49.5t-156 18.5q-93 0 -152 -18t-59 -50v-96h-252v217q0 34 67.5 64.5t175 48.5t220.5 18q117 0 228.5 -18t182.5 -48.5t71 -64.5v-977h-265v53q-168 -73 -317 -73q-65 0 -126 6t-121.5 19.5 t-97 40.5t-36.5 65zM322 1425q0 96 72.5 162t191.5 66t191.5 -66t72.5 -162q0 -97 -73 -163t-191 -66q-116 0 -190 66t-74 163zM352 227q0 -27 60 -42t157 -15q93 0 153.5 14t63.5 39v205q0 26 -61.5 41.5t-155.5 15.5q-95 0 -156 -15.5t-61 -41.5v-201zM494 1425 q0 -35 25.5 -61.5t66.5 -26.5q42 0 68 26t26 62q0 35 -25.5 60.5t-68.5 25.5q-41 0 -66.5 -25.5t-25.5 -60.5z" />
<glyph unicode="&#xe6;" horiz-adv-x="1900" d="M88 111v407q0 36 37.5 65t96 46t122.5 26t125 9q172 0 317 -64v256q0 31 -61 49.5t-156 18.5q-93 0 -152 -18t-59 -50v-96h-252v217q0 34 67.5 64.5t175 48.5t220.5 18q186 0 334 -41q142 37 371 37q90 0 169.5 -6.5t148.5 -20.5t109 -40t40 -60v-465q0 -59 -108 -87 t-261 -28q-175 0 -319 39v-205q0 -31 67.5 -49t163.5 -18q100 0 250 12t227 27v-178q-69 -19 -219 -33.5t-258 -14.5q-162 0 -313 23h-185v53q-168 -73 -317 -73q-65 0 -126 6t-121.5 19.5t-97 40.5t-36.5 65zM352 227q0 -27 60 -42t157 -15q93 0 153.5 14t63.5 39v207 q-3 26 -64 40.5t-153 14.5q-95 0 -156 -15.5t-61 -41.5v-201zM1053 625q3 -24 69 -39t152 -15q72 0 143.5 17t71.5 41v229q0 27 -70.5 43.5t-144.5 16.5q-87 0 -154 -16.5t-67 -41.5v-235z" />
<glyph unicode="&#xe7;" horiz-adv-x="1089" d="M90 111v852q0 46 86 80.5t189.5 48.5t195.5 14q67 0 141 -9t143 -25.5t114 -45t45 -63.5v-261h-246v132q0 31 -62.5 50t-142.5 19q-86 0 -143.5 -18.5t-57.5 -50.5v-582q0 -70 271 -70q90 0 212.5 16.5t184.5 32.5v-192q-251 -55 -424 -59l-23 -41q94 -2 173 -47.5 t79 -122.5q0 -59 -26.5 -104t-72.5 -71.5t-101.5 -39.5t-118.5 -13q-131 0 -221 43l45 86q46 -24 119 -24q58 0 95.5 22t37.5 72q0 25 -10.5 43.5t-24 28t-39 15.5t-43.5 7.5t-49 3.5l76 144q-103 4 -189 17.5t-149.5 42.5t-63.5 69z" />
<glyph unicode="&#xe8;" horiz-adv-x="1142" d="M76 106v873q0 34 43 60t115.5 40t154.5 20.5t174 6.5q90 0 169.5 -6.5t148.5 -20.5t109 -40t40 -60v-465q0 -59 -107.5 -87t-260.5 -28q-176 0 -320 39v-205q0 -31 67.5 -49t163.5 -18q100 0 250.5 12t227.5 27v-178q-68 -19 -218.5 -33t-259.5 -14q-128 0 -234 11 t-184.5 40.5t-78.5 74.5zM158 1581h282l258 -373h-221zM342 631q0 -25 67 -41.5t154 -16.5q72 0 143.5 17t71.5 41v229q0 27 -70.5 43.5t-144.5 16.5q-87 0 -154 -16.5t-67 -41.5v-231z" />
<glyph unicode="&#xe9;" horiz-adv-x="1142" d="M76 106v873q0 34 43 60t115.5 40t154.5 20.5t174 6.5q90 0 169.5 -6.5t148.5 -20.5t109 -40t40 -60v-465q0 -59 -107.5 -87t-260.5 -28q-176 0 -320 39v-205q0 -31 67.5 -49t163.5 -18q100 0 250.5 12t227.5 27v-178q-68 -19 -218.5 -33t-259.5 -14q-128 0 -234 11 t-184.5 40.5t-78.5 74.5zM342 631q0 -25 67 -41.5t154 -16.5q72 0 143.5 17t71.5 41v229q0 27 -70.5 43.5t-144.5 16.5q-87 0 -154 -16.5t-67 -41.5v-231zM459 1210l252 406h288l-321 -406h-219z" />
<glyph unicode="&#xea;" horiz-adv-x="1142" d="M76 106v873q0 34 43 60t115.5 40t154.5 20.5t174 6.5q90 0 169.5 -6.5t148.5 -20.5t109 -40t40 -60v-465q0 -59 -107.5 -87t-260.5 -28q-176 0 -320 39v-205q0 -31 67.5 -49t163.5 -18q100 0 250.5 12t227.5 27v-178q-68 -19 -218.5 -33t-259.5 -14q-128 0 -234 11 t-184.5 40.5t-78.5 74.5zM240 1262l333 299l332 -299l-59 -72l-273 139l-274 -139zM342 631q0 -25 67 -41.5t154 -16.5q72 0 143.5 17t71.5 41v229q0 27 -70.5 43.5t-144.5 16.5q-87 0 -154 -16.5t-67 -41.5v-231z" />
<glyph unicode="&#xeb;" horiz-adv-x="1142" d="M76 106v873q0 34 43 60t115.5 40t154.5 20.5t174 6.5q90 0 169.5 -6.5t148.5 -20.5t109 -40t40 -60v-465q0 -59 -107.5 -87t-260.5 -28q-176 0 -320 39v-205q0 -31 67.5 -49t163.5 -18q100 0 250.5 12t227.5 27v-178q-68 -19 -218.5 -33t-259.5 -14q-128 0 -234 11 t-184.5 40.5t-78.5 74.5zM258 1210v293h229v-293h-229zM342 631q0 -25 67 -41.5t154 -16.5q72 0 143.5 17t71.5 41v229q0 27 -70.5 43.5t-144.5 16.5q-87 0 -154 -16.5t-67 -41.5v-231zM653 1210v293h230v-293h-230z" />
<glyph unicode="&#xec;" horiz-adv-x="512" d="M-176 1581h282l259 -373h-222zM96 131v954h262v-839q0 -15 61 -35.5t81 -20.5v-210q-151 2 -277.5 48t-126.5 103z" />
<glyph unicode="&#xed;" horiz-adv-x="512" d="M96 131v954h262v-839q0 -15 61 -35.5t81 -20.5v-210q-151 2 -277.5 48t-126.5 103zM111 1210l251 406h289l-321 -406h-219z" />
<glyph unicode="&#xee;" horiz-adv-x="512" d="M-109 1262l334 299l332 -299l-59 -72l-273 139l-274 -139zM96 131v954h262v-839q0 -15 61 -35.5t81 -20.5v-210q-151 2 -277.5 48t-126.5 103z" />
<glyph unicode="&#xef;" horiz-adv-x="512" d="M-90 1210v293h229v-293h-229zM96 131v954h262v-839q0 -15 61 -35.5t81 -20.5v-210q-151 2 -277.5 48t-126.5 103zM305 1210v293h230v-293h-230z" />
<glyph unicode="&#xf0;" horiz-adv-x="1214" d="M88 137v600q0 42 33.5 74t89.5 49.5t119 26t131 8.5q215 0 424 -86q-87 279 -404 410l-63 -140l-144 62l58 127q-71 21 -174 41l51 188q96 -15 209 -43l55 123l143 -59l-49 -109q279 -103 419 -277t140 -387v-608q0 -43 -44.5 -74.5t-120.5 -49t-164.5 -25.5t-190.5 -8 q-101 0 -189 8t-164.5 25.5t-120.5 49t-44 74.5zM358 274q0 -40 71 -64t177 -24t179 24t73 64v326q0 39 -73.5 63.5t-178.5 24.5t-176.5 -24.5t-71.5 -63.5v-326z" />
<glyph unicode="&#xf1;" d="M88 0v1085h262v-73q71 44 173 69t200 25q141 0 240.5 -38.5t99.5 -104.5v-963h-262v846q0 27 -60.5 42t-154.5 15q-99 0 -166 -20t-70 -52v-831h-262zM266 1280q29 89 95 147t149 58q39 0 79 -21t75.5 -42t64.5 -21q66 0 111 72l137 -58q-28 -92 -91.5 -155.5 t-146.5 -63.5q-47 0 -118 41t-105 41q-35 0 -60 -16.5t-53 -53.5z" />
<glyph unicode="&#xf2;" d="M88 111v852q0 43 80 77t189 50t218 16t218.5 -16t189.5 -50t80 -77v-852q0 -43 -81 -74t-188 -44t-219 -13t-218.5 13t-187.5 44t-81 74zM174 1581h283l258 -373h-221zM350 240q0 -27 63.5 -42.5t161.5 -15.5t162 15.5t64 42.5v606q0 27 -63.5 42t-162.5 15t-162 -15 t-63 -42v-606z" />
<glyph unicode="&#xf3;" d="M88 111v852q0 43 80 77t189 50t218 16t218.5 -16t189.5 -50t80 -77v-852q0 -43 -81 -74t-188 -44t-219 -13t-218.5 13t-187.5 44t-81 74zM350 240q0 -27 63.5 -42.5t161.5 -15.5t162 15.5t64 42.5v606q0 27 -63.5 42t-162.5 15t-162 -15t-63 -42v-606zM463 1210l252 406 h289l-322 -406h-219z" />
<glyph unicode="&#xf4;" d="M88 111v852q0 43 80 77t189 50t218 16t218.5 -16t189.5 -50t80 -77v-852q0 -43 -81 -74t-188 -44t-219 -13t-218.5 13t-187.5 44t-81 74zM244 1262l334 299l331 -299l-59 -72l-272 139l-275 -139zM350 240q0 -27 63.5 -42.5t161.5 -15.5t162 15.5t64 42.5v606 q0 27 -63.5 42t-162.5 15t-162 -15t-63 -42v-606z" />
<glyph unicode="&#xf5;" d="M88 111v852q0 43 80 77t189 50t218 16t218.5 -16t189.5 -50t80 -77v-852q0 -43 -81 -74t-188 -44t-219 -13t-218.5 13t-187.5 44t-81 74zM223 1280q29 89 95 147t149 58q39 0 79 -21t75.5 -42t64.5 -21q66 0 111 72l137 -58q-28 -92 -91.5 -155.5t-146.5 -63.5 q-47 0 -118 41t-105 41q-35 0 -60 -16.5t-53 -53.5zM350 240q0 -27 63.5 -42.5t161.5 -15.5t162 15.5t64 42.5v606q0 27 -63.5 42t-162.5 15t-162 -15t-63 -42v-606z" />
<glyph unicode="&#xf6;" d="M88 111v852q0 43 80 77t189 50t218 16t218.5 -16t189.5 -50t80 -77v-852q0 -43 -81 -74t-188 -44t-219 -13t-218.5 13t-187.5 44t-81 74zM262 1210v293h230v-293h-230zM350 240q0 -27 63.5 -42.5t161.5 -15.5t162 15.5t64 42.5v606q0 27 -63.5 42t-162.5 15t-162 -15 t-63 -42v-606zM657 1210v293h230v-293h-230z" />
<glyph unicode="&#xf7;" horiz-adv-x="903" d="M51 477v221h803v-221h-803zM332 0v293h231v-293h-231zM332 870v295h231v-295h-231z" />
<glyph unicode="&#xf8;" d="M88 111v852q0 43 80 77t189 50t218 16q83 0 148 -8l72 174h149l-82 -195q201 -44 201 -114v-852q0 -43 -81 -74t-188 -44t-219 -13q-88 0 -161 8l-68 -168h-147l75 186q-84 16 -135 43t-51 62zM350 240q0 -14 12 -23l281 684q-11 0 -34 1t-34 1q-99 0 -162 -15t-63 -42 v-606zM496 184q25 -2 79 -2q98 0 162 15.5t64 42.5v606q0 13 -23 26z" />
<glyph unicode="&#xf9;" d="M88 123v962h262v-845q0 -27 60.5 -42.5t154.5 -15.5q102 0 169 20.5t67 53.5v829h262v-1085h-262v72q-72 -43 -174 -67.5t-199 -24.5q-75 0 -151.5 16t-132.5 50t-56 77zM168 1581h283l258 -373h-222z" />
<glyph unicode="&#xfa;" d="M88 123v962h262v-845q0 -27 60.5 -42.5t154.5 -15.5q99 0 165.5 19t70.5 51v833h262v-1085h-262v72q-72 -43 -174 -67.5t-199 -24.5q-75 0 -151.5 16t-132.5 50t-56 77zM455 1210l252 406h288l-321 -406h-219z" />
<glyph unicode="&#xfb;" d="M88 123v962h262v-845q0 -27 60.5 -42.5t154.5 -15.5q102 0 169 20.5t67 53.5v829h262v-1085h-262v72q-72 -43 -174 -67.5t-199 -24.5q-75 0 -151.5 16t-132.5 50t-56 77zM236 1262l333 299l332 -299l-59 -72l-273 139l-274 -139z" />
<glyph unicode="&#xfc;" d="M88 123v962h262v-845q0 -27 60.5 -42.5t154.5 -15.5q102 0 169 20.5t67 53.5v829h262v-1085h-262v72q-72 -43 -174 -67.5t-199 -24.5q-75 0 -151.5 16t-132.5 50t-56 77zM256 1210v293h229v-293h-229zM651 1210v293h230v-293h-230z" />
<glyph unicode="&#xfd;" horiz-adv-x="1157" d="M94 123v962h262v-845q0 -27 60.5 -42.5t154.5 -15.5q102 0 169 20.5t67 53.5v829h262v-1429q0 -37 -41.5 -63.5t-114.5 -40.5t-155.5 -20.5t-179.5 -6.5q-96 0 -176 6.5t-150 20.5t-110 40.5t-40 63.5v240h263v-109q0 -29 70 -44t143 -15q82 0 155.5 19t73.5 50v275 q-72 -43 -174 -67.5t-199 -24.5q-76 0 -152.5 16t-132 50t-55.5 77zM457 1210l252 406h288l-321 -406h-219z" />
<glyph unicode="&#xfe;" horiz-adv-x="1040" d="M111 -442v1915h233v-539q142 117 342 117q52 0 93 -11t68.5 -28t47 -46.5t30.5 -58t16.5 -71.5t7 -77t1.5 -85v-318q0 -51 -1.5 -85t-7 -77t-16.5 -71t-30.5 -57.5t-47 -46.5t-68.5 -28t-93 -11q-201 0 -342 116v-538h-233zM344 223q31 -29 102.5 -51t174.5 -22 q23 0 39.5 6.5t27 22t16.5 30.5t9 43t3.5 48t0.5 56v318q0 36 -0.5 56t-3.5 48t-9 43.5t-16.5 31t-27 22t-39.5 6.5q-103 0 -174.5 -22.5t-102.5 -51.5v-584z" />
<glyph unicode="&#xff;" horiz-adv-x="1157" d="M94 123v962h262v-845q0 -27 60.5 -42.5t154.5 -15.5q102 0 169 20.5t67 53.5v829h262v-1429q0 -37 -41.5 -63.5t-114.5 -40.5t-155.5 -20.5t-179.5 -6.5q-96 0 -176 6.5t-150 20.5t-110 40.5t-40 63.5v240h263v-109q0 -29 70 -44t143 -15q82 0 155.5 19t73.5 50v275 q-72 -43 -174 -67.5t-199 -24.5q-76 0 -152.5 16t-132 50t-55.5 77zM258 1210v293h229v-293h-229zM653 1210v293h230v-293h-230z" />
<glyph unicode="&#x152;" horiz-adv-x="2174" d="M94 158v1155q0 74 184.5 128t432.5 54q280 0 471 -68q70 34 178.5 51t214.5 17q82 0 167 -9.5t159.5 -27.5t122 -48.5t47.5 -66.5v-333h-240v207q0 35 -73 57t-161 22q-92 0 -160.5 -22.5t-68.5 -59.5v-268q0 -35 63.5 -57.5t147.5 -22.5h121v-200h-121 q-101 0 -177.5 -23t-76.5 -59v-324q0 -31 91.5 -51.5t217.5 -20.5q108 0 247.5 15.5t207.5 32.5l14 -197q-283 -59 -508 -59q-290 0 -436 59q-180 -59 -448 -59q-160 0 -302 24t-228.5 65t-86.5 89zM371 274q0 -39 103 -63.5t237 -24.5q131 0 231.5 23t106.5 61v930 q0 39 -102 63.5t-236 24.5t-237 -24.5t-103 -63.5v-926z" />
<glyph unicode="&#x153;" horiz-adv-x="1865" d="M88 111v852q0 43 80 77t189 50t218 16q184 0 330 -41q146 41 381 41q90 0 169.5 -6.5t148.5 -20.5t109 -40t40 -60v-465q0 -59 -108 -87t-261 -28q-175 0 -319 39v-205q0 -31 67.5 -49t163.5 -18q100 0 250.5 12t227.5 27v-178q-68 -19 -218.5 -33t-259.5 -14 q-238 0 -376 36q-141 -36 -345 -36q-112 0 -218.5 13t-187.5 44t-81 74zM350 240q0 -27 63.5 -42.5t161.5 -15.5q203 0 224 49v623q-10 23 -72 36t-152 13q-99 0 -162 -15t-63 -42v-606zM1065 631q0 -25 67 -41.5t154 -16.5q72 0 143.5 17t71.5 41v229q0 27 -70.5 43.5 t-144.5 16.5q-87 0 -154 -16.5t-67 -41.5v-231z" />
<glyph unicode="&#x178;" horiz-adv-x="1253" d="M76 1004v471h266v-431q35 -106 127 -241.5t158 -200.5q65 63 156.5 199t127.5 243v431h267v-471q-47 -124 -181.5 -314t-224.5 -278v-412h-295v418q-91 88 -222 274.5t-179 311.5zM313 1546v293h230v-293h-230zM709 1546v293h229v-293h-229z" />
<glyph unicode="&#x2c6;" horiz-adv-x="835" d="M82 1260l334 299l332 -299l-60 -72l-272 139l-275 -139z" />
<glyph unicode="&#x2dc;" horiz-adv-x="802" d="M47 1270q29 89 95 147t149 58q39 0 79 -21t75.5 -42t64.5 -21q67 0 111 71l137 -57q-28 -92 -91.5 -155.5t-146.5 -63.5q-47 0 -118 41t-105 41q-35 0 -60 -16.5t-53 -53.5z" />
<glyph unicode="&#x2000;" horiz-adv-x="994" />
<glyph unicode="&#x2001;" horiz-adv-x="1989" />
<glyph unicode="&#x2002;" horiz-adv-x="994" />
<glyph unicode="&#x2003;" horiz-adv-x="1989" />
<glyph unicode="&#x2004;" horiz-adv-x="663" />
<glyph unicode="&#x2005;" horiz-adv-x="497" />
<glyph unicode="&#x2006;" horiz-adv-x="331" />
<glyph unicode="&#x2007;" horiz-adv-x="331" />
<glyph unicode="&#x2008;" horiz-adv-x="248" />
<glyph unicode="&#x2009;" horiz-adv-x="397" />
<glyph unicode="&#x200a;" horiz-adv-x="110" />
<glyph unicode="&#x2010;" horiz-adv-x="759" d="M113 487v215h536v-215h-536z" />
<glyph unicode="&#x2011;" horiz-adv-x="759" d="M113 487v215h536v-215h-536z" />
<glyph unicode="&#x2012;" horiz-adv-x="759" d="M113 487v215h536v-215h-536z" />
<glyph unicode="&#x2013;" horiz-adv-x="1189" d="M113 487v215h966v-215h-966z" />
<glyph unicode="&#x2014;" horiz-adv-x="1742" d="M113 487v215h1517v-215h-1517z" />
<glyph unicode="&#x2018;" horiz-adv-x="489" d="M115 1001l174 474h225l-115 -474h-284z" />
<glyph unicode="&#x2019;" horiz-adv-x="489" d="M45 1001l115 474h284l-174 -474h-225z" />
<glyph unicode="&#x201a;" horiz-adv-x="454" d="M49 -205l115 473h285l-175 -473h-225z" />
<glyph unicode="&#x201c;" horiz-adv-x="870" d="M115 1001l174 474h225l-115 -474h-284zM498 1001l174 474h225l-115 -474h-284z" />
<glyph unicode="&#x201d;" horiz-adv-x="870" d="M45 1001l115 474h284l-174 -474h-225zM426 1001l115 474h284l-174 -474h-225z" />
<glyph unicode="&#x201e;" horiz-adv-x="940" d="M49 -205l115 473h285l-175 -473h-225zM457 -205l114 473h285l-174 -473h-225z" />
<glyph unicode="&#x2022;" horiz-adv-x="673" d="M113 256v604h450v-604h-450z" />
<glyph unicode="&#x2026;" horiz-adv-x="1390" d="M92 0v297h279v-297h-279zM555 0v297h279v-297h-279zM1018 0v297h278v-297h-278z" />
<glyph unicode="&#x202f;" horiz-adv-x="397" />
<glyph unicode="&#x2039;" horiz-adv-x="677" d="M49 563l416 471l156 -133l-283 -338l280 -334l-153 -135z" />
<glyph unicode="&#x203a;" horiz-adv-x="675" d="M57 229l283 334l-283 338l154 133l416 -471l-416 -469z" />
<glyph unicode="&#x205f;" horiz-adv-x="497" />
<glyph unicode="&#x20ac;" horiz-adv-x="1562" d="M98 414l33 157h199v99h-232l33 157h199v494q0 50 95 91.5t224 62t250 20.5q130 0 258 -21.5t215.5 -62.5t87.5 -90v-330h-237v215q0 37 -99 60.5t-211 23.5q-118 0 -212.5 -25.5t-94.5 -66.5v-371h344l-41 -157h-303v-99h344l-41 -157h-303v-138q0 -40 108 -65t267 -25 q120 0 267.5 17.5t224.5 38.5l16 -197q-335 -65 -588 -65q-126 0 -255.5 21t-222.5 62.5t-93 90.5v260h-232z" />
<glyph unicode="&#x2122;" horiz-adv-x="2326" d="M14 1274v201h893v-201h-305v-885h-274v885h-314zM829 389v330q34 154 103 339t111.5 276.5t68.5 140.5h256l42 -105q43 -104 81 -204.5t53 -155.5q30 126 174 465h256q29 -54 70.5 -142t111 -274t101.5 -340v-330h-258v324q-14 87 -52.5 200.5t-69.5 183t-40 83.5 q-10 -18 -39.5 -86t-69.5 -183t-55 -198v-324h-260v324q-15 83 -56.5 200t-68.5 178t-41 89q-10 -17 -39.5 -85t-68 -181.5t-52.5 -200.5v-324h-258z" />
</font>
</defs>
</svg>
